<svg width="21" height="21" viewBox="0 0 21 21" fill="none" xmlns="http://www.w3.org/2000/svg">
<path d="M7 12.25C6.75208 12.25 6.54442 12.166 6.377 11.998C6.20958 11.83 6.12558 11.6223 6.125 11.375C6.12442 11.1277 6.20842 10.92 6.377 10.752C6.54558 10.584 6.75325 10.5 7 10.5C7.24675 10.5 7.45471 10.584 7.62388 10.752C7.79304 10.92 7.87675 11.1277 7.875 11.375C7.87325 11.6223 7.78925 11.8303 7.623 11.9989C7.45675 12.1675 7.24908 12.2512 7 12.25ZM10.5 12.25C10.2521 12.25 10.0444 12.166 9.877 11.998C9.70958 11.83 9.62558 11.6223 9.625 11.375C9.62442 11.1277 9.70842 10.92 9.877 10.752C10.0456 10.584 10.2533 10.5 10.5 10.5C10.7467 10.5 10.9547 10.584 11.1239 10.752C11.293 10.92 11.3767 11.1277 11.375 11.375C11.3733 11.6223 11.2893 11.8303 11.123 11.9989C10.9567 12.1675 10.7491 12.2512 10.5 12.25ZM14 12.25C13.7521 12.25 13.5444 12.166 13.377 11.998C13.2096 11.83 13.1256 11.6223 13.125 11.375C13.1244 11.1277 13.2084 10.92 13.377 10.752C13.5456 10.584 13.7533 10.5 14 10.5C14.2467 10.5 14.4547 10.584 14.6239 10.752C14.793 10.92 14.8767 11.1277 14.875 11.375C14.8733 11.6223 14.7893 11.8303 14.623 11.9989C14.4567 12.1675 14.2491 12.2512 14 12.25ZM2.625 19.25V3.5H5.25V1.75H7V3.5H14V1.75H15.75V3.5H18.375V19.25H2.625ZM4.375 17.5H16.625V8.75H4.375V17.5ZM4.375 7H16.625V5.25H4.375V7Z" fill="black"/>
</svg>
