<svg width="21" height="21" viewBox="0 0 21 21" fill="none" xmlns="http://www.w3.org/2000/svg">
<path d="M19.5 3H2V8.25H2.875V17.875C2.875 18.3391 3.05937 18.7842 3.38756 19.1124C3.71575 19.4406 4.16087 19.625 4.625 19.625H16.875C17.3391 19.625 17.7842 19.4406 18.1124 19.1124C18.4406 18.7842 18.625 18.3391 18.625 17.875V8.25H19.5V3ZM3.75 4.75H17.75V6.5H3.75V4.75ZM16.875 17.875H4.625V8.25H16.875V17.875ZM8.125 10H13.375C13.375 10.4641 13.1906 10.9092 12.8624 11.2374C12.5342 11.5656 12.0891 11.75 11.625 11.75H9.875C9.41087 11.75 8.96575 11.5656 8.63756 11.2374C8.30937 10.9092 8.125 10.4641 8.125 10Z" fill="#111723"/>
</svg>
