<svg width="21" height="21" viewBox="0 0 21 21" fill="none" xmlns="http://www.w3.org/2000/svg">
<path d="M19.25 2.625H1.75V7.875H2.625V17.5C2.625 17.9641 2.80937 18.4092 3.13756 18.7374C3.46575 19.0656 3.91087 19.25 4.375 19.25H16.625C17.0891 19.25 17.5342 19.0656 17.8624 18.7374C18.1906 18.4092 18.375 17.9641 18.375 17.5V7.875H19.25V2.625ZM3.5 4.375H17.5V6.125H3.5V4.375ZM16.625 17.5H4.375V7.875H16.625V17.5ZM7.875 9.625H13.125C13.125 10.0891 12.9406 10.5342 12.6124 10.8624C12.2842 11.1906 11.8391 11.375 11.375 11.375H9.625C9.16087 11.375 8.71575 11.1906 8.38756 10.8624C8.05937 10.5342 7.875 10.0891 7.875 9.625Z" fill="#4A5565"/>
</svg>
